<?xml version="1.0" standalone="no"?>
<!DOCTYPE svg PUBLIC "-//W3C//DTD SVG 20010904//EN"
 "http://www.w3.org/TR/2001/REC-SVG-20010904/DTD/svg10.dtd">
<svg version="1.0" xmlns="http://www.w3.org/2000/svg"
 width="1122.000000pt" height="1214.000000pt" viewBox="0 0 1122.000000 1214.000000"
 preserveAspectRatio="xMidYMid meet">

<g transform="translate(0.000000,1214.000000) scale(0.100000,-0.100000)"
fill="#000000" stroke="none">
<path d="M1199 11444 c-19 -6 -49 -65 -49 -97 0 -30 -44 -121 -80 -167 -33
-42 -44 -67 -71 -162 -25 -90 -24 -142 5 -203 13 -27 27 -57 29 -66 3 -9 19
-23 36 -30 17 -8 31 -17 31 -20 0 -15 39 -4 72 22 20 16 47 28 60 27 13 -1 39
4 58 10 41 13 129 13 148 -1 6 -5 12 -18 12 -29 0 -10 5 -16 10 -13 6 3 10 1
10 -4 0 -6 -5 -11 -11 -11 -6 0 -8 -7 -5 -16 3 -8 2 -13 -3 -10 -5 3 -11 -7
-14 -22 -4 -18 -18 -33 -41 -46 -32 -17 -42 -18 -87 -8 -64 15 -69 15 -69 -1
0 -18 -34 -49 -43 -40 -4 3 -7 0 -7 -7 0 -11 -3 -11 -12 -2 -9 9 -18 4 -40
-18 -15 -17 -31 -30 -34 -30 -14 0 -33 -36 -34 -61 0 -15 -6 -44 -13 -65 -12
-33 -11 -48 2 -99 9 -33 21 -67 26 -76 6 -8 45 -32 87 -52 43 -21 93 -51 112
-68 32 -27 34 -32 25 -64 -13 -45 -46 -81 -95 -101 -37 -16 -38 -17 -16 -25
20 -8 22 -15 22 -76 0 -98 13 -113 97 -113 36 0 87 -8 112 -17 54 -19 77 -14
91 19 89 216 121 293 140 345 12 34 40 90 62 123 32 50 43 80 59 163 10 56 25
113 31 127 18 37 71 113 87 126 8 6 11 16 7 22 -3 6 -2 13 3 17 18 11 -20 73
-48 80 -14 3 -59 22 -99 42 -81 40 -94 61 -68 111 14 28 14 37 2 86 -19 71
-29 89 -60 105 -38 21 -75 82 -69 114 8 41 42 57 110 52 88 -6 104 -10 168
-44 32 -17 64 -31 71 -31 7 0 27 -13 44 -30 17 -16 34 -30 39 -30 32 0 62 93
39 122 -7 9 -64 31 -128 48 -162 45 -237 68 -295 90 -27 10 -84 28 -125 40
-128 37 -145 42 -162 51 -21 10 -108 19 -129 13z"/>
<path d="M5615 9630 c-3 -5 -3 -49 1 -97 6 -88 6 -89 -19 -100 -55 -25 -262
-13 -320 19 -22 12 -84 22 -201 32 -53 4 -63 2 -107 -27 -33 -22 -49 -40 -51
-57 -2 -18 -10 -26 -28 -28 -14 -2 -29 -8 -35 -12 -18 -15 -85 -23 -85 -10 0
7 -8 9 -19 5 -11 -3 -22 -1 -26 5 -10 16 -47 12 -83 -10 -18 -11 -39 -20 -47
-20 -9 0 -20 -11 -26 -24 -11 -22 -80 -59 -119 -62 -46 -4 -59 -14 -53 -47 8
-49 -9 -101 -34 -105 -15 -2 -23 -12 -25 -30 -4 -35 -53 -44 -74 -14 -12 18
-25 20 -114 19 l-101 -1 -65 -69 c-36 -38 -72 -84 -80 -102 -9 -23 -33 -46
-69 -70 -31 -19 -59 -35 -64 -35 -12 0 -21 -25 -21 -56 0 -33 22 -30 60 7 54
54 65 -2 11 -58 -12 -12 -21 -33 -21 -46 0 -44 -26 -64 -87 -66 -31 -1 -53
-27 -53 -64 -1 -18 -9 -42 -20 -55 l-19 -22 -37 20 -37 21 -22 -27 c-21 -26
-21 -32 -10 -78 6 -28 17 -62 24 -75 15 -28 8 -110 -14 -156 -8 -16 -16 -41
-19 -55 -3 -14 -18 -33 -33 -42 -16 -9 -40 -27 -55 -40 -15 -13 -37 -30 -50
-39 -23 -16 -23 -17 -5 -53 18 -39 23 -96 8 -111 -17 -19 -139 -270 -167 -345
-23 -59 -30 -95 -32 -170 -3 -91 1 -129 29 -267 15 -74 1 -142 -29 -139 -14 1
-17 -9 -18 -64 -1 -68 11 -103 54 -146 28 -29 28 -45 -2 -73 -20 -19 -33 -22
-81 -19 -73 4 -81 -12 -23 -45 29 -16 66 -27 111 -30 56 -5 74 -12 108 -39
l40 -32 -6 -61 c-5 -42 -2 -71 8 -95 21 -51 11 -105 -25 -135 -16 -14 -34 -25
-40 -25 -12 0 -7 -73 16 -200 22 -122 30 -140 71 -170 25 -18 49 -55 85 -127
27 -57 50 -105 50 -108 0 -14 107 -185 134 -213 42 -45 110 -79 187 -92 65
-11 303 -9 349 3 14 4 39 9 55 13 76 15 215 59 260 82 62 31 173 142 203 203
56 116 91 236 101 344 6 68 7 70 34 73 24 3 28 7 24 25 -5 20 -10 125 -8 169
1 23 57 51 88 45 13 -2 26 0 29 4 3 5 14 9 26 9 15 0 18 4 13 18 -4 9 -9 32
-12 50 -3 18 -10 35 -14 38 -5 3 -9 14 -9 24 0 10 -4 21 -8 24 -5 3 -69 -1
-143 -9 -123 -13 -143 -12 -244 5 -170 28 -225 33 -445 34 l-205 2 0 40 c-1
24 6 47 14 55 13 11 14 11 8 -4 -9 -23 0 -22 13 2 7 15 6 23 -5 35 -14 14 -14
18 0 46 9 17 24 36 35 43 11 6 20 17 20 23 0 17 33 50 50 49 8 -1 20 2 25 5
20 14 52 17 69 8 20 -11 21 0 2 21 -12 14 -12 20 7 43 12 15 32 29 43 31 12 1
32 10 45 19 l24 16 -28 27 c-21 21 -24 30 -15 37 21 13 48 9 48 -8 0 -8 4 -13
9 -9 11 6 8 61 -4 72 -4 4 -5 2 -1 -4 5 -9 0 -14 -16 -15 -37 -2 -42 -3 -57
-12 -10 -6 -12 -5 -7 3 6 9 0 11 -21 9 -29 -3 -54 -18 -47 -29 2 -4 -3 -12
-11 -19 -12 -10 -15 -9 -15 4 0 18 -25 22 -36 4 -4 -6 -3 -8 3 -5 6 4 14 0 17
-9 4 -12 0 -15 -16 -12 -13 2 -24 11 -27 23 -2 11 -11 25 -19 31 -17 12 -24
87 -8 77 5 -3 7 6 4 20 -4 20 -2 24 11 19 13 -4 13 -2 -2 15 -16 18 -16 22 -2
33 8 7 15 21 15 32 0 10 7 21 15 24 22 9 8 23 -18 18 -12 -2 -17 -2 -11 1 7 3
10 15 7 25 -3 12 0 20 7 20 8 0 10 8 6 24 -3 14 -2 28 4 31 5 3 10 -2 10 -11
0 -10 3 -14 7 -11 3 4 0 18 -7 32 -7 14 -10 28 -7 32 4 3 7 -1 7 -11 0 -16 2
-16 24 1 21 16 22 19 7 31 -14 12 -13 13 10 9 28 -4 45 10 54 46 4 13 17 30
29 36 22 12 64 86 42 75 -6 -3 -2 1 8 10 10 8 23 13 29 9 6 -3 7 -1 3 6 -4 6
-12 8 -18 5 -5 -4 -2 5 7 20 10 14 22 26 27 26 5 0 6 5 3 10 -3 6 1 10 9 10 9
0 16 3 16 8 0 4 25 33 54 65 35 38 56 54 59 45 3 -8 8 -3 15 13 6 15 21 29 33
32 13 4 20 9 16 13 -9 10 22 66 33 59 6 -4 13 1 16 9 3 9 11 16 18 16 12 1 74
81 93 120 6 14 12 19 12 10 1 -9 7 -6 16 10 25 44 34 69 38 103 5 46 24 77 49
77 15 0 19 5 15 20 -3 11 -1 23 4 26 5 3 9 19 9 37 0 23 3 28 11 20 9 -9 18
-4 36 17 13 16 34 32 45 36 12 4 28 13 36 20 7 8 22 14 33 14 11 0 18 4 14 9
-3 5 9 11 27 13 20 2 32 8 30 16 -3 16 48 61 69 62 9 0 19 7 23 15 3 8 12 12
19 9 8 -3 21 2 30 10 9 9 20 16 26 16 5 0 34 14 65 30 30 17 57 26 60 21 3 -5
15 -11 27 -14 15 -4 19 -2 15 8 -6 17 19 40 29 25 3 -5 17 -7 31 -4 13 3 32 3
41 -1 39 -17 44 -15 38 18 -5 31 -5 32 7 7 12 -24 48 -38 48 -19 0 5 9 9 20 9
11 0 20 5 20 12 0 6 11 2 23 -11 15 -13 30 -19 41 -15 13 5 20 -2 29 -25 8
-21 16 -30 26 -26 8 3 17 1 21 -5 4 -6 18 -12 32 -14 31 -3 54 -24 69 -63 9
-25 12 -26 20 -10 11 19 39 24 39 6 0 -5 -6 -7 -12 -3 -7 4 -3 -4 9 -17 21
-24 23 -27 23 -51 0 -19 15 2 16 23 1 10 2 22 3 26 2 14 51 -53 51 -71 0 -11
3 -16 7 -13 8 9 53 -57 53 -78 0 -9 6 -15 13 -14 28 3 36 -2 39 -28 2 -22 8
-28 25 -26 16 2 23 -4 28 -26 3 -16 12 -32 19 -34 7 -3 19 -25 26 -50 14 -45
35 -57 46 -25 7 23 24 14 19 -11 -6 -33 10 -45 47 -35 32 10 33 12 33 61 0 40
3 49 13 41 16 -14 15 -54 -3 -124 -13 -49 -13 -60 0 -84 14 -27 13 -29 -5 -35
-13 -4 -20 -15 -20 -31 0 -24 1 -24 18 -7 11 10 22 26 25 35 13 37 49 -5 62
-71 2 -13 7 -26 11 -30 4 -3 4 1 2 9 -3 8 -1 23 4 32 7 15 12 16 27 6 11 -7
17 -18 13 -26 -3 -10 -1 -13 6 -8 11 6 62 -62 62 -83 0 -6 11 -22 25 -37 14
-15 25 -31 25 -37 0 -5 14 -26 30 -47 17 -21 30 -43 30 -49 0 -13 145 -157
166 -165 8 -3 14 -10 14 -15 0 -5 11 -12 25 -15 14 -4 25 -11 25 -16 0 -6 6
-10 13 -10 6 0 25 -11 41 -25 30 -26 46 -31 46 -16 0 12 52 0 69 -16 11 -12
15 -12 22 -1 7 10 9 10 9 -1 0 -12 3 -12 12 -3 15 15 31 16 22 0 -5 -7 -2 -9
7 -6 8 3 44 -9 80 -28 35 -18 80 -41 99 -50 19 -9 39 -22 43 -30 4 -8 13 -14
19 -14 6 0 37 -18 70 -40 33 -22 64 -40 70 -40 24 0 68 -33 82 -61 28 -57 22
-74 -31 -87 -27 -7 -59 -12 -73 -11 -14 1 -86 -3 -160 -10 -171 -13 -295 -20
-389 -21 l-73 0 6 -27 c8 -31 16 -77 44 -236 11 -59 21 -109 23 -111 5 -5 141
27 179 41 14 6 66 15 115 22 50 7 97 15 105 18 8 4 25 5 37 4 11 -1 24 3 28 8
3 6 21 11 39 11 19 0 39 7 47 16 15 18 102 64 122 64 14 0 36 -64 38 -112 l1
-23 7 24 c6 22 7 21 19 -13 7 -20 19 -36 27 -36 7 0 16 -12 19 -26 l7 -25 17
21 18 22 28 -42 c15 -23 36 -67 46 -99 10 -32 37 -88 60 -126 23 -37 44 -84
47 -104 3 -20 12 -44 18 -54 7 -10 11 -26 8 -35 -7 -27 14 -72 34 -72 14 0 15
2 4 9 -8 5 -11 16 -8 25 3 8 3 18 -2 20 -4 3 -9 26 -9 52 -1 25 -5 50 -7 54
-3 5 -1 11 5 15 5 3 10 3 11 -2 0 -4 3 -17 5 -28 3 -11 6 -25 6 -32 1 -8 7 -9
18 -3 21 11 30 4 30 -25 0 -11 4 -25 9 -30 5 -6 11 -21 14 -35 3 -16 5 -10 6
18 0 23 6 42 11 42 13 0 13 150 0 170 -6 11 -5 17 5 20 13 4 12 12 -6 44 -11
22 -23 64 -25 95 -2 31 -10 83 -18 116 -8 33 -19 89 -25 123 -9 57 -8 66 8 83
17 18 20 19 34 5 9 -9 28 -16 44 -16 15 0 23 -4 17 -8 -8 -5 -5 -13 7 -26 18
-18 18 -18 24 6 5 20 11 24 31 20 14 -2 24 0 24 7 0 7 5 9 10 6 6 -3 10 -17
10 -31 0 -27 16 -31 47 -9 20 14 22 13 32 -17 6 -17 11 -39 11 -49 0 -13 5
-16 16 -12 9 3 19 2 23 -4 17 -26 136 -54 154 -36 4 4 26 8 50 10 23 3 46 9
52 14 5 5 19 9 32 9 17 0 27 -11 42 -45 11 -25 26 -45 34 -45 8 0 20 -7 27
-15 20 -24 43 -19 38 9 -8 39 3 48 40 35 26 -9 42 -8 82 7 54 19 64 42 35 80
-8 10 -15 30 -15 43 0 14 -11 37 -25 51 -31 32 -25 53 19 74 18 9 39 22 46 31
7 8 18 15 26 15 24 0 57 58 49 88 -4 15 -6 42 -6 61 1 33 0 33 -31 27 -18 -4
-65 -9 -103 -13 -87 -7 -92 -1 -97 90 -2 64 -1 68 30 96 17 17 32 36 32 43 0
7 8 27 17 43 17 30 20 54 43 335 16 198 14 258 -14 338 -13 37 -32 96 -42 131
-12 41 -26 68 -40 78 -13 8 -28 30 -34 48 -6 18 -18 39 -27 46 -8 7 -19 23
-24 36 -5 13 -17 23 -28 23 -14 0 -40 30 -85 98 -73 108 -81 119 -115 147
l-24 20 8 -25 c4 -14 10 -31 12 -37 12 -32 -30 -7 -98 57 -40 39 -81 70 -89
70 -19 0 -88 80 -114 133 -10 20 -27 42 -37 47 -10 6 -33 32 -51 58 -17 26
-54 73 -80 105 -26 32 -48 62 -48 68 0 5 -7 9 -15 9 -9 0 -35 18 -59 40 -51
47 -289 170 -316 163 -11 -3 -32 4 -49 16 -16 12 -40 21 -54 21 -14 0 -43 15
-66 34 -24 20 -65 41 -99 50 -31 9 -70 23 -87 31 -73 35 -132 56 -160 57 -16
0 -56 14 -88 31 -54 28 -60 29 -96 17 -43 -14 -76 -7 -108 23 l-23 20 0 -21
c0 -20 -5 -22 -57 -22 -66 0 -83 8 -86 38 -2 27 -8 28 -30 2 -14 -16 -31 -20
-89 -22 -40 -1 -86 -1 -102 0 -16 1 -34 -2 -40 -6 -21 -17 -94 -21 -107 -6 -7
9 -23 12 -43 9 -141 -23 -171 -25 -215 -16 -35 7 -50 6 -61 -3 -29 -25 -49
-25 -98 0 -42 21 -50 30 -55 59 -3 19 -21 51 -39 71 -82 92 -78 89 -78 68 0
-16 -2 -16 -16 4 -16 23 -67 31 -79 12z m-809 -351 c9 -16 -12 -33 -31 -25
-14 5 -15 9 -5 21 15 18 26 19 36 4z m2544 -276 c0 -20 -16 -8 -23 17 -4 17
-3 19 9 9 8 -6 14 -18 14 -26z m-1838 -260 c-10 -26 -10 -24 -11 22 0 42 2 46
11 28 7 -15 7 -30 0 -50z m-1603 -64 c-16 -31 -41 -24 -33 9 10 41 16 47 30
27 9 -13 10 -23 3 -36z m4258 -61 c25 -23 29 -43 12 -53 -14 -9 -59 34 -59 57
0 24 19 23 47 -4z m-597 -148 c0 -5 -2 -10 -4 -10 -3 0 -8 5 -11 10 -3 6 -1
10 4 10 6 0 11 -4 11 -10z m-985 -147 c0 -28 5 -39 38 -72 10 -11 18 -27 16
-37 -1 -11 3 -32 9 -47 7 -16 12 -39 12 -51 0 -13 13 -49 28 -80 16 -31 25
-56 20 -56 -6 0 -12 9 -15 21 -4 14 -12 19 -24 16 -20 -5 -36 26 -44 87 -4 38
-15 62 -15 35 0 -11 -2 -11 -10 1 -5 8 -10 27 -10 41 0 14 -3 29 -7 33 -4 4
-9 42 -10 84 -2 42 1 71 5 65 4 -7 8 -25 7 -40z m915 -1 c0 -15 -2 -15 -10 -2
-13 20 -13 33 0 25 6 -3 10 -14 10 -23z m-465 -73 c11 -16 1 -19 -13 -3 -7 8
-8 14 -3 14 5 0 13 -5 16 -11z m152 -98 c31 5 36 -3 14 -22 -29 -24 -42 -15
-60 41 l-11 35 25 -28 c13 -15 28 -27 32 -26z m27 33 c4 -9 4 -19 2 -21 -8 -8
-26 8 -26 23 0 19 16 18 24 -2z m-4 -84 c0 -5 -2 -10 -4 -10 -3 0 -8 5 -11 10
-3 6 -1 10 4 10 6 0 11 -4 11 -10z m-715 -60 c3 -5 2 -10 -4 -10 -5 0 -13 5
-16 10 -3 6 -2 10 4 10 5 0 13 -4 16 -10z m77 -45 c6 -28 -6 -34 -16 -9 -8 22
-7 34 3 34 5 0 11 -11 13 -25z m145 -47 c-3 -8 -6 -5 -6 6 -1 11 2 17 5 13 3
-3 4 -12 1 -19z m-322 -20 c-7 -34 -15 -34 -15 1 0 18 4 30 9 26 6 -3 8 -15 6
-27z m992 -80 c-3 -8 -6 -5 -6 6 -1 11 2 17 5 13 3 -3 4 -12 1 -19z m30 0 c-3
-8 -6 -5 -6 6 -1 11 2 17 5 13 3 -3 4 -12 1 -19z m1169 -1103 c8 -19 20 -35
27 -35 19 0 56 -70 59 -111 4 -44 -21 -50 -55 -13 -22 23 -28 26 -42 14 -8 -7
-19 -10 -23 -6 -4 4 1 14 11 21 19 14 19 42 1 133 -8 42 3 41 22 -3z m-4187
-446 c36 -6 71 -12 76 -13 6 -2 13 -4 17 -5 34 -7 109 -48 136 -74 79 -76 105
-159 104 -345 -1 -106 -5 -141 -26 -215 -48 -162 -103 -240 -217 -308 -89 -53
-196 -86 -339 -104 -287 -37 -427 -4 -527 125 -23 30 -42 58 -43 62 0 3 -15
39 -34 80 -61 131 -108 345 -98 452 6 76 41 138 107 188 49 39 201 108 235
108 9 0 21 5 28 12 7 7 12 9 12 5 0 -4 10 -2 23 4 56 31 418 49 546 28z m3501
-49 c0 -5 -2 -10 -4 -10 -3 0 -8 5 -11 10 -3 6 -1 10 4 10 6 0 11 -4 11 -10z
m-3073 -252 c-2 -13 -4 -5 -4 17 -1 22 1 32 4 23 2 -10 2 -28 0 -40z"/>
<path d="M3921 6263 c-7 -8 -24 -13 -37 -10 -13 2 -21 0 -18 -4 3 -5 -4 -9
-15 -9 -12 0 -21 -4 -21 -9 0 -5 -15 -12 -32 -15 -18 -4 -49 -16 -68 -26 -19
-10 -45 -23 -56 -29 -12 -5 -28 -23 -35 -40 -10 -23 -19 -29 -41 -29 -64 2
-90 -54 -86 -183 l3 -94 50 -2 c79 -2 84 -4 91 -37 4 -17 10 -38 12 -46 2 -8
6 -35 8 -60 l4 -45 -14 30 -15 30 4 -40 c1 -22 3 -46 4 -53 1 -7 6 -10 11 -7
6 3 10 2 10 -4 0 -5 -6 -11 -12 -14 -9 -3 -6 -14 10 -36 13 -18 21 -39 18 -46
-3 -8 0 -15 7 -18 8 -2 8 -5 -1 -11 -7 -4 -12 -2 -12 3 0 6 -7 11 -16 11 -34
0 29 -109 85 -147 55 -37 59 -19 27 104 -26 96 -36 138 -50 208 -12 53 -16
155 -7 176 6 17 23 29 59 41 50 15 51 15 71 -6 12 -12 21 -28 21 -35 0 -7 8
-11 17 -9 16 3 21 16 39 103 7 38 22 238 18 246 -1 3 -4 31 -5 63 -3 63 -7 71
-28 49z"/>
<path d="M4393 6150 c-41 -17 -43 -115 -2 -158 22 -24 56 -28 109 -11 19 5 53
12 75 15 59 7 62 9 69 48 9 48 -7 73 -52 85 -134 34 -161 36 -199 21z m135
-62 c5 -39 -20 -52 -51 -28 -26 20 -27 46 -4 62 19 12 52 -9 55 -34z"/>
<path d="M4171 6109 c-21 -8 -78 -60 -73 -66 7 -10 0 -44 -12 -56 -15 -15 -11
-57 5 -57 5 0 6 -6 3 -14 -3 -8 -2 -22 3 -31 8 -14 13 -13 36 11 15 15 27 31
27 35 0 5 7 9 15 9 11 0 13 10 9 50 -5 42 -3 49 10 44 16 -6 31 30 24 62 -4
22 -16 25 -47 13z"/>
<path d="M785 9591 c-11 -5 -23 -7 -26 -5 -3 2 -19 -10 -35 -27 -65 -70 -91
-91 -136 -112 -85 -39 -72 -63 61 -118 65 -26 83 -39 106 -73 25 -38 26 -46
21 -117 -4 -43 -2 -88 3 -102 9 -23 19 -26 63 -18 15 2 68 85 68 105 0 24 50
72 90 88 36 15 90 11 182 -12 85 -22 126 -20 151 8 18 21 11 92 -9 92 -8 0
-14 5 -14 11 0 6 7 9 15 5 9 -3 15 0 15 8 0 9 -8 12 -24 9 -22 -5 -24 -1 -31
47 -12 85 -63 113 -156 86 -119 -36 -192 -10 -273 97 -29 38 -37 41 -71 28z"/>
<path d="M1969 8626 c-32 -13 -68 -19 -174 -31 -22 -3 -65 -10 -95 -15 -58
-10 -144 -12 -295 -6 -104 3 -271 -11 -315 -27 -8 -3 -35 -10 -60 -16 -25 -5
-63 -18 -85 -27 -59 -25 -87 -28 -195 -21 -57 4 -70 2 -117 -25 -29 -16 -55
-34 -58 -38 -7 -11 75 -50 103 -50 11 0 31 4 44 9 13 5 32 13 43 17 39 13 209
4 287 -17 44 -11 90 -13 303 -9 88 1 169 0 180 -3 11 -3 23 -6 27 -6 15 -2 78
-77 78 -94 0 -9 4 -25 9 -35 48 -93 48 -102 37 -667 -7 -396 -15 -636 -21
-645 -2 -3 -6 -46 -9 -96 -6 -94 -21 -198 -31 -214 -3 -5 -6 -31 -6 -57 0 -26
-4 -73 -9 -103 -5 -30 -12 -75 -15 -100 -3 -25 -9 -70 -13 -100 -8 -58 6 -100
34 -100 28 0 99 -83 112 -132 12 -40 11 -57 -2 -120 -26 -120 -34 -248 -35
-533 -1 -449 -11 -705 -27 -751 -27 -76 -70 -103 -234 -148 -74 -20 -125 -26
-235 -29 -148 -4 -185 -14 -236 -59 -33 -30 -49 -74 -45 -121 2 -21 -1 -40 -5
-43 -5 -3 -7 -18 -5 -34 2 -17 -3 -35 -10 -41 -8 -6 -11 -15 -8 -21 3 -5 0
-15 -6 -23 -9 -11 -9 -15 -1 -15 6 0 11 -7 11 -15 0 -9 -9 -15 -21 -15 -11 0
-32 -9 -46 -20 -18 -14 -33 -18 -52 -14 -37 9 -50 24 -20 25 26 1 21 4 -23 13
-16 4 -28 13 -28 21 0 7 -9 17 -20 20 -11 4 -18 11 -14 16 3 6 0 10 -7 8 -28
-3 -39 1 -39 16 0 13 -4 14 -20 5 -16 -8 -20 -8 -20 4 0 19 -27 28 -34 10 -3
-8 -12 -14 -21 -14 -8 0 -15 -4 -15 -10 0 -5 -12 -13 -26 -16 -14 -4 -30 -17
-34 -30 -10 -26 -30 -32 -30 -9 0 9 -6 12 -15 9 -11 -5 -15 1 -15 19 0 13 -7
30 -15 37 -9 7 -13 21 -10 31 7 21 -34 69 -58 69 -8 0 -20 7 -27 15 -9 11 -27
13 -78 9 -95 -8 -172 -24 -172 -36 0 -5 -7 -8 -15 -4 -13 5 -15 -46 -15 -423
l0 -428 22 -20 c63 -58 137 -66 198 -23 28 20 42 60 21 60 -5 0 -30 20 -55 44
-67 63 -73 121 -21 182 14 16 25 40 25 53 0 80 50 139 115 135 17 -1 40 -2 53
-3 12 0 30 -10 39 -21 10 -11 23 -20 29 -20 20 0 108 -51 132 -77 29 -31 44
-152 22 -178 -19 -23 1 -41 28 -26 11 6 42 11 69 11 26 0 90 9 141 19 96 20
112 19 189 -15 17 -8 43 -14 58 -14 42 0 103 -21 122 -42 17 -19 22 -63 10
-113 -11 -54 -38 -120 -56 -142 -24 -29 -86 -63 -115 -63 -13 0 -45 -10 -72
-21 -39 -18 -76 -23 -204 -28 -137 -6 -160 -10 -197 -31 -25 -14 -43 -32 -45
-44 -3 -24 -48 -33 -48 -9 0 7 -8 17 -18 20 -9 4 -30 16 -47 28 -65 46 -114
60 -215 59 -52 0 -111 -5 -130 -10 -57 -16 -55 -26 33 -214 41 -89 47 -150 16
-194 -17 -25 -33 -36 -61 -40 l-38 -6 0 -420 c0 -393 3 -445 26 -408 5 7 10 4
15 -10 5 -12 15 -22 24 -22 17 0 21 -35 5 -45 -6 -4 -8 -10 -5 -15 3 -5 -10
-32 -30 -60 l-35 -50 2 -665 3 -666 86 128 c100 147 251 328 306 366 21 14 61
33 89 42 30 10 76 37 110 66 49 41 65 49 99 49 49 0 100 -30 123 -71 9 -18 49
-82 89 -143 116 -181 129 -192 158 -136 13 25 15 72 12 305 -4 300 0 329 50
373 39 34 67 43 152 52 40 4 77 13 81 20 4 7 4 26 0 41 -6 21 -4 33 6 44 19
18 17 18 60 0 28 -11 35 -19 32 -37 -2 -13 -10 -24 -18 -24 -8 -1 -24 -2 -35
-3 -20 -2 -20 -2 -1 -16 10 -8 23 -12 28 -9 5 3 20 -2 34 -11 29 -19 130 -30
357 -40 189 -9 195 -6 166 62 -18 42 -18 49 -5 77 8 17 25 41 38 53 27 26 110
46 149 38 38 -9 69 2 69 23 -1 9 -20 39 -44 66 l-44 48 -86 7 c-86 7 -87 7
-124 49 -61 69 -86 75 -337 83 -121 4 -285 12 -365 19 -160 13 -189 23 -227
80 -20 29 -23 45 -23 141 0 153 19 191 118 235 51 23 52 25 52 66 0 58 -54
141 -162 247 -94 93 -108 118 -108 189 0 73 68 193 166 294 64 65 98 84 192
103 85 18 130 19 201 1 92 -23 231 -29 261 -12 46 28 85 44 160 66 118 35 194
87 235 162 17 31 11 138 -8 138 -6 0 -3 8 5 18 12 14 14 33 7 102 -12 137 -21
338 -19 430 1 47 2 92 1 100 -7 68 -10 123 -15 240 -3 74 -8 196 -12 270 -4
74 -6 142 -5 150 3 34 0 329 -4 380 -3 30 -7 89 -10 130 -2 41 -7 113 -11 160
-3 47 -7 130 -10 185 -2 55 -6 127 -9 160 -3 33 -7 112 -10 176 -2 63 -8 126
-13 140 -5 13 -6 34 -1 46 4 12 4 25 -1 28 -5 3 -7 29 -6 58 1 28 -2 63 -7 77
-6 14 -10 28 -9 32 1 4 -5 42 -14 85 -9 43 -18 89 -19 103 -2 14 -4 25 -5 25
0 0 -3 28 -4 63 -2 34 -8 75 -14 90 -12 31 -37 296 -29 309 2 4 1 34 -3 66
-10 69 -16 794 -7 882 7 75 33 142 58 150 10 4 19 11 19 16 0 5 5 9 10 9 29 0
69 61 84 129 18 78 21 232 6 259 -5 9 -14 29 -20 45 -11 30 -11 31 -61 13z"/>
<path d="M6020 8155 c0 -11 5 -27 10 -35 8 -12 10 -12 10 5 0 11 -5 27 -10 35
-8 12 -10 12 -10 -5z"/>
<path d="M6320 7941 c0 -6 4 -12 8 -15 5 -3 9 1 9 9 0 8 -4 15 -9 15 -4 0 -8
-4 -8 -9z"/>
<path d="M6370 7750 c11 -20 30 -28 30 -12 0 11 -22 32 -32 32 -5 0 -4 -9 2
-20z"/>
<path d="M6496 7695 c-3 -8 -1 -15 4 -15 6 0 10 7 10 15 0 8 -2 15 -4 15 -2 0
-6 -7 -10 -15z"/>
<path d="M6480 7611 c0 -6 4 -13 10 -16 6 -3 7 1 4 9 -7 18 -14 21 -14 7z"/>
<path d="M6547 7345 c31 -22 80 -72 86 -89 4 -9 14 -12 26 -9 13 3 21 1 21 -7
0 -13 29 -45 35 -38 10 9 -35 88 -51 88 -17 0 -86 46 -92 62 -2 4 -13 8 -25 8
l-21 0 21 -15z"/>
<path d="M6495 7340 c4 -6 11 -8 16 -5 14 9 11 15 -7 15 -8 0 -12 -5 -9 -10z"/>
<path d="M6310 7287 c0 -20 5 -24 35 -25 19 -1 44 -6 55 -12 27 -15 26 5 -1
24 -12 8 -27 12 -34 10 -7 -3 -15 2 -18 10 -10 25 -37 19 -37 -7z"/>
<path d="M6005 7280 c-3 -5 -1 -10 4 -10 6 0 11 5 11 10 0 6 -2 10 -4 10 -3 0
-8 -4 -11 -10z"/>
<path d="M6640 7215 c7 -9 15 -13 17 -11 7 7 -7 26 -19 26 -6 0 -6 -6 2 -15z"/>
<path d="M5910 6715 c-55 -12 -162 -41 -190 -52 -8 -4 -19 -5 -23 -4 -24 5
-377 -164 -397 -190 -3 -4 -43 -26 -89 -50 l-84 -44 7 -110 c5 -71 12 -115 21
-125 8 -9 33 -58 56 -109 72 -164 119 -232 236 -342 95 -89 205 -148 327 -174
64 -14 107 -17 215 -12 75 3 147 9 161 12 14 3 61 13 105 21 44 8 112 25 150
38 327 113 408 183 441 385 17 105 18 207 2 217 -7 4 -8 3 -4 -4 4 -7 3 -12
-2 -12 -5 0 -8 -10 -8 -22 1 -13 -1 -39 -5 -58 -7 -31 -7 -29 -5 13 2 26 0 50
-5 52 -4 3 -10 36 -14 73 -12 126 -66 354 -81 339 -2 -2 2 -23 10 -48 50 -157
75 -398 57 -540 -7 -51 -15 -97 -19 -103 -3 -6 -7 -17 -8 -24 -1 -7 -14 -28
-28 -47 -89 -116 -334 -209 -661 -250 -279 -34 -443 16 -620 191 -100 99 -150
175 -189 292 -32 94 -31 223 4 295 21 44 78 108 128 143 39 27 217 114 234
114 9 0 19 4 22 9 4 5 24 12 46 16 22 4 40 11 40 16 0 6 4 8 8 5 5 -3 38 4 73
15 113 36 125 39 141 39 9 0 21 7 28 15 7 9 19 14 27 11 8 -3 12 -2 9 3 -3 5
-15 11 -27 14 -16 4 -19 2 -15 -11 5 -15 5 -15 -6 -1 -11 13 -21 13 -68 4z"/>
<path d="M6178 6494 c-9 -20 -11 -34 -5 -34 6 0 7 -3 4 -6 -13 -13 13 -42 33
-37 23 6 24 13 10 65 -14 50 -23 53 -42 12z"/>
<path d="M995 6469 c-44 -4 -134 -8 -200 -9 -188 -3 -315 -16 -382 -39 -48
-16 -99 -23 -214 -28 -212 -9 -199 6 -199 -229 l0 -184 25 -10 c29 -11 328
-16 370 -5 89 21 94 24 101 68 7 48 46 87 92 92 55 6 123 -18 150 -53 21 -28
24 -38 18 -83 -8 -56 7 -90 62 -142 l30 -28 221 3 c205 3 222 4 240 23 13 13
29 60 46 140 28 129 28 200 -2 300 -8 28 -19 66 -25 86 -7 25 -24 45 -60 70
-46 31 -57 34 -122 34 -39 0 -107 -3 -151 -6z"/>
<path d="M6271 6409 c-13 -17 -24 -38 -26 -47 -2 -13 -11 -16 -39 -14 -25 3
-36 -1 -36 -10 0 -10 -2 -10 -9 2 -6 8 -7 18 -5 22 3 4 -2 8 -10 8 -9 0 -16
-9 -16 -20 0 -20 0 -20 -30 2 -28 20 -29 23 -14 40 9 9 21 15 27 11 5 -3 7 -2
4 4 -3 5 -16 9 -29 8 -19 -1 -24 -10 -32 -48 -7 -40 -5 -52 14 -83 23 -36 24
-36 76 -32 32 3 62 12 73 22 13 12 28 16 44 12 30 -7 81 29 73 51 -3 8 -1 11
4 8 6 -3 10 -4 10 -2 0 6 -51 97 -54 97 -1 0 -13 -14 -25 -31z m46 -42 c-2 -7
-11 -13 -20 -15 -12 -3 -17 4 -17 23 0 23 2 25 21 15 11 -6 18 -17 16 -23z"/>
<path d="M8850 6370 c0 -5 9 -10 20 -10 11 0 20 5 20 10 0 6 -9 10 -20 10 -11
0 -20 -4 -20 -10z"/>
<path d="M6862 6281 c-6 -17 -7 -33 -3 -36 5 -2 11 10 14 28 6 42 2 45 -11 8z"/>
<path d="M5751 6247 c-15 -19 -2 -29 15 -12 8 7 14 16 14 19 0 11 -17 6 -29
-7z"/>
<path d="M5290 6156 c0 -25 26 -43 33 -23 5 15 -10 47 -23 47 -6 0 -10 -11
-10 -24z"/>
<path d="M5400 6077 c0 -8 -3 -29 -6 -46 -9 -42 8 -39 22 4 9 28 8 37 -2 46
-11 9 -14 8 -14 -4z"/>
<path d="M8010 5831 c0 -6 4 -13 10 -16 6 -3 7 1 4 9 -7 18 -14 21 -14 7z"/>
<path d="M8040 5701 c0 -5 9 -28 21 -52 l20 -44 -6 44 c-3 24 -8 48 -11 53 -7
11 -24 10 -24 -1z"/>
<path d="M100 5600 c0 -5 9 -10 20 -10 11 0 20 5 20 10 0 6 -9 10 -20 10 -11
0 -20 -4 -20 -10z"/>
<path d="M5413 5010 c-39 -8 -114 -41 -140 -62 -15 -12 1 -32 34 -42 11 -4 23
-16 26 -28 6 -21 7 -21 26 -4 10 10 34 20 53 23 18 3 36 9 39 15 3 5 9 9 13 8
13 -2 66 49 66 63 0 8 -11 18 -24 21 -13 3 -30 8 -38 10 -7 2 -32 0 -55 -4z"/>
<path d="M8403 4973 c-48 -4 -53 -6 -53 -27 0 -17 5 -23 18 -22 13 1 18 -8 20
-34 5 -50 16 -55 46 -25 22 22 26 35 25 71 -2 24 -3 43 -3 42 -1 -1 -25 -3
-53 -5z"/>
<path d="M4900 4770 c0 -5 7 -10 16 -10 8 0 12 5 9 10 -3 6 -10 10 -16 10 -5
0 -9 -4 -9 -10z"/>
<path d="M4760 4590 c0 -5 5 -10 10 -10 6 0 10 5 10 10 0 6 -4 10 -10 10 -5 0
-10 -4 -10 -10z"/>
<path d="M5240 4576 c0 -2 9 -6 20 -9 11 -3 18 -1 14 4 -5 9 -34 13 -34 5z"/>
<path d="M5851 4553 c0 -6 -4 -20 -7 -30 -5 -14 -4 -15 5 -7 7 7 11 20 8 30
-3 11 -5 14 -6 7z"/>
<path d="M4771 4541 c-8 -5 -10 -14 -6 -21 6 -9 10 -8 17 4 12 21 7 28 -11 17z"/>
<path d="M6240 4527 c0 -10 9 -26 20 -37 19 -19 20 -19 20 -2 0 11 -9 27 -20
37 -18 16 -20 16 -20 2z"/>
<path d="M4735 4520 c-3 -5 -1 -10 4 -10 6 0 11 5 11 10 0 6 -2 10 -4 10 -3 0
-8 -4 -11 -10z"/>
<path d="M6196 4501 c-3 -4 1 -17 9 -27 14 -18 14 -18 15 9 0 26 -13 36 -24
18z"/>
<path d="M6363 4497 c4 -10 7 -23 7 -28 0 -5 5 -9 10 -9 16 0 12 26 -7 41 -15
12 -16 12 -10 -4z"/>
<path d="M4725 4490 c3 -5 0 -10 -8 -10 -8 0 -20 -6 -27 -14 -14 -17 -40 -10
-40 10 0 12 -4 12 -20 4 -11 -6 -19 -14 -16 -18 2 -4 -7 -8 -21 -7 -14 0 -28
-6 -31 -14 -3 -9 1 -11 16 -6 20 6 21 4 11 -24 -7 -20 -20 -33 -35 -37 -16 -4
-24 -13 -24 -28 -1 -23 -23 -58 -37 -56 -4 1 -11 -9 -15 -22 -6 -24 -11 -8 -9
29 1 11 -3 24 -8 28 -10 6 -16 -14 -12 -44 2 -7 -2 -10 -8 -6 -13 8 -31 -35
-31 -76 0 -36 13 -37 29 -3 6 15 15 24 18 20 3 -3 11 1 17 9 8 12 10 4 8 -33
-3 -35 1 -52 12 -61 9 -8 16 -21 16 -31 0 -16 15 -25 44 -28 15 -1 26 -25 26
-59 0 -46 14 -48 30 -5 l14 37 6 -30 c6 -30 6 -30 33 24 15 30 27 61 27 68 0
7 5 13 10 13 14 0 12 33 -4 55 -7 10 -11 27 -8 37 3 12 -1 18 -13 18 -13 0
-15 -3 -6 -13 6 -8 8 -17 5 -20 -4 -4 -12 -32 -19 -64 -7 -32 -13 -50 -14 -40
-1 9 -5 17 -10 17 -14 0 -10 51 5 57 8 3 14 15 13 26 0 34 8 69 25 110 12 27
14 43 6 57 -5 10 -7 27 -3 37 7 20 41 53 55 53 4 0 8 11 8 25 0 14 -5 25 -11
25 -5 0 -7 -4 -4 -10z m-63 -105 c-3 -20 -7 -23 -18 -14 -10 8 -11 14 -1 24
18 21 25 18 19 -10z m-47 -285 c3 -5 -1 -10 -9 -10 -9 0 -16 5 -16 10 0 6 4
10 9 10 6 0 13 -4 16 -10z"/>
<path d="M6500 4486 c0 -9 5 -16 10 -16 6 0 10 4 10 9 0 6 -4 13 -10 16 -5 3
-10 -1 -10 -9z"/>
<path d="M4766 4451 c-4 -7 -5 -15 -2 -18 9 -9 19 4 14 18 -4 11 -6 11 -12 0z"/>
<path d="M4740 4426 c0 -9 5 -16 10 -16 6 0 10 4 10 9 0 6 -4 13 -10 16 -5 3
-10 -1 -10 -9z"/>
<path d="M8499 4439 c0 -2 -2 -53 -3 -114 -2 -105 -15 -157 -49 -200 -4 -5
-21 -29 -38 -52 -17 -24 -37 -43 -45 -43 -8 0 -14 -7 -14 -15 0 -8 -7 -15 -16
-15 -8 0 -12 -4 -9 -10 3 -5 1 -11 -4 -11 -6 -1 -15 -2 -19 -3 -15 -2 -42 -34
-42 -50 0 -30 -28 -4 -38 35 -9 34 -8 40 4 35 19 -7 18 17 -5 83 -21 61 -29
50 -27 -40 1 -48 -2 -56 -17 -55 -10 1 -23 8 -28 16 -9 12 -9 11 -4 -5 4 -11
7 -28 7 -37 0 -10 7 -18 16 -18 16 -1 15 -2 -1 -11 -11 -7 -16 -18 -13 -35 3
-17 -1 -28 -15 -37 -10 -6 -19 -17 -19 -24 0 -7 -6 -13 -14 -13 -16 0 -38 24
-30 33 3 3 -4 15 -16 27 l-22 22 7 -33 c4 -19 11 -38 15 -44 4 -5 10 -25 12
-44 4 -31 4 -32 -9 -16 -7 11 -13 22 -13 27 0 4 -5 7 -11 6 -6 -2 -17 15 -24
37 -11 34 -13 36 -15 15 -2 -14 -4 -29 -5 -35 -2 -5 -3 -16 -4 -23 0 -7 -5
-11 -11 -7 -5 3 -3 -16 5 -42 8 -26 15 -49 15 -50 0 -2 -7 -3 -16 -3 -8 0 -13
4 -10 9 3 5 -1 12 -10 15 -8 3 -12 2 -9 -3 3 -5 1 -12 -5 -16 -5 -3 -10 -1
-10 5 0 12 -38 100 -44 100 -4 0 -7 -25 -10 -85 -2 -27 -6 -58 -11 -68 -4 -9
-4 -33 -1 -52 5 -27 4 -35 -7 -35 -17 0 -27 21 -27 55 0 12 -7 28 -15 35 -12
10 -15 10 -15 -3 0 -12 -19 -27 -36 -27 -2 0 -4 17 -5 38 0 33 -1 34 -10 14
-5 -13 -13 -20 -19 -17 -6 4 -10 -5 -10 -19 0 -14 -4 -26 -9 -26 -13 0 -24 55
-16 82 3 13 -3 5 -15 -16 -11 -22 -20 -48 -20 -58 0 -11 -5 -16 -10 -13 -6 4
-8 11 -5 16 4 5 1 9 -4 9 -6 0 -11 11 -11 25 0 14 -5 25 -11 25 -7 0 -9 -9 -4
-22 16 -56 25 -102 22 -112 -3 -6 -8 3 -12 19 -4 17 -16 48 -26 70 l-20 40 6
-37 c5 -30 3 -37 -8 -32 -12 4 -11 -5 2 -54 12 -46 12 -65 4 -83 -11 -22 -12
-21 -12 16 -1 43 -21 89 -21 48 0 -31 -11 -54 -21 -47 -5 3 -6 11 -3 17 4 7 3
8 -2 4 -5 -5 -10 -18 -10 -30 -3 -49 -3 -50 -18 -38 -11 9 -15 7 -20 -11 -6
-23 -6 -23 -22 -3 -11 14 -15 15 -14 5 1 -8 2 -27 1 -42 -1 -22 -5 -26 -18
-21 -10 3 -24 13 -30 21 -12 14 -13 14 -13 -1 0 -9 -5 -17 -11 -17 -5 0 -7 -4
-4 -10 3 -5 1 -10 -4 -10 -6 0 -11 -9 -11 -21 0 -11 -4 -17 -10 -14 -5 3 -10
-1 -10 -9 0 -9 -7 -16 -15 -16 -8 0 -15 -5 -15 -12 0 -9 -3 -9 -12 0 -17 17
-31 15 -24 -3 5 -15 -18 -45 -35 -45 -8 0 -13 15 -10 33 0 4 -5 7 -13 7 -16 0
-28 -50 -12 -51 6 0 1 -5 -11 -11 -13 -6 -23 -17 -23 -25 0 -7 -4 -13 -10 -13
-13 0 -13 6 0 31 15 27 2 24 -26 -7 -13 -14 -24 -20 -24 -15 0 6 -7 11 -15 11
-11 0 -15 -11 -15 -39 0 -22 -5 -43 -10 -46 -6 -4 -8 -10 -5 -15 3 -5 1 -11
-5 -15 -6 -4 -10 11 -10 39 0 69 -28 55 -35 -17 -5 -53 -29 -50 -27 3 0 20 -4
30 -11 27 -7 -2 -11 -11 -11 -20 2 -24 -27 -31 -33 -7 -8 30 -25 24 -21 -7 2
-14 -2 -28 -8 -30 -12 -4 -34 39 -34 67 0 11 -4 20 -10 20 -5 0 -10 -10 -10
-21 0 -19 -2 -20 -17 -8 -10 8 -14 9 -10 2 4 -6 3 -14 -2 -17 -14 -9 -39 4
-44 22 -2 10 -4 3 -4 -13 0 -41 -12 -77 -24 -70 -5 4 -9 1 -9 -4 0 -6 -9 -11
-20 -11 -16 0 -19 5 -14 24 3 13 1 27 -5 30 -7 5 -11 -6 -12 -31 -2 -66 -4
-78 -14 -80 -5 -1 -9 5 -7 12 4 19 -30 36 -48 25 -10 -6 -22 -2 -37 12 l-23
21 0 -26 c0 -30 -17 -45 -23 -20 -4 17 -4 17 -10 1 -4 -10 -9 -25 -12 -33 -7
-23 -22 -18 -34 13 -8 20 -10 21 -7 5 3 -15 -1 -23 -10 -23 -17 0 -17 -10 -4
-44 7 -21 6 -26 -5 -26 -8 0 -15 -4 -15 -10 0 -5 -10 -10 -23 -10 -14 0 -26
-9 -32 -22 -6 -13 -17 -24 -25 -24 -48 -5 -60 -16 -61 -58 -1 -22 -3 -33 -6
-23 -5 18 -43 24 -43 7 0 -5 -9 -10 -19 -10 -11 0 -21 -8 -24 -17 -3 -14 -6
-11 -11 10 -5 15 -12 27 -18 27 -5 0 -7 -4 -4 -8 2 -4 1 -14 -4 -22 -7 -11
-12 -11 -23 -2 -12 10 -16 8 -21 -10 -5 -19 -8 -20 -16 -8 -5 8 -10 11 -10 5
0 -5 -4 -3 -9 5 -17 26 -121 14 -105 -12 3 -4 -9 -2 -26 4 -25 8 -34 7 -49 -6
-17 -16 -19 -16 -25 1 -7 16 -9 16 -20 -6 -13 -23 -13 -23 -19 -2 -4 18 -10
21 -32 15 -18 -4 -30 -2 -36 7 -8 12 -11 12 -19 -1 -5 -8 -10 -25 -10 -37 0
-13 -4 -23 -9 -23 -5 0 -11 10 -13 23 -3 20 -5 19 -22 -13 -11 -19 -21 -29
-23 -22 -3 6 -8 10 -13 7 -5 -3 -11 4 -15 15 -3 11 -11 20 -16 20 -5 0 -14 10
-18 23 -9 22 -9 22 -16 -5 -4 -16 -11 -26 -15 -23 -4 2 -10 -25 -13 -61 -2
-36 -9 -70 -14 -75 -6 -6 -8 11 -5 44 3 42 0 58 -14 71 -17 17 -18 17 -35 -5
-9 -12 -20 -49 -23 -81 -4 -31 -12 -60 -18 -64 -7 -5 -9 0 -5 15 3 14 -1 24
-12 31 -14 7 -17 22 -17 82 1 63 -9 98 -26 98 -9 0 -7 -69 2 -75 5 -3 10 -11
10 -16 0 -6 -5 -7 -10 -4 -6 3 -13 -2 -16 -12 -19 -60 -24 -53 -21 34 l2 91
-30 0 c-63 -1 -68 1 -62 22 8 30 -10 24 -27 -8 -9 -18 -11 -34 -6 -42 7 -12
10 -11 16 3 12 33 29 18 28 -26 -3 -62 -3 -64 -18 -44 -12 16 -14 15 -24 -10
-6 -16 -13 -37 -15 -48 -3 -11 -5 11 -6 49 -1 60 -3 67 -16 56 -12 -10 -15 -9
-16 6 0 11 -3 14 -6 7 -2 -7 -9 -13 -14 -13 -6 0 -7 5 -3 12 4 7 3 8 -4 4 -7
-4 -12 -18 -12 -32 0 -44 -29 -25 -47 31 -9 28 -10 28 -17 9 -6 -19 -10 -20
-31 -10 -14 6 -25 14 -25 17 0 11 -86 99 -97 99 -12 0 -53 43 -53 56 0 6 -11
21 -25 34 -14 13 -25 28 -25 34 -1 21 -96 144 -138 179 -23 20 -60 59 -82 86
-44 56 -47 57 -75 38 -51 -35 -107 -40 -255 -23 -79 9 -147 19 -151 22 -11 6
-154 24 -244 30 -38 2 -88 6 -110 9 -220 25 -297 36 -335 50 -24 8 -83 18
-130 20 -96 5 -139 10 -190 20 -19 4 -43 7 -52 7 -10 -1 -18 2 -18 6 0 4 -23
7 -51 7 -28 0 -53 3 -56 8 -3 4 -19 5 -36 1 -18 -4 -43 -8 -57 -9 -14 -1 -50
-6 -81 -10 -31 -4 -78 -8 -105 -9 -33 -1 -69 -12 -109 -32 -33 -17 -77 -37
-97 -43 -47 -15 -88 -48 -88 -69 0 -9 32 -50 70 -91 39 -41 70 -76 70 -78 0
-2 -18 -3 -41 -3 -29 0 -40 -4 -36 -12 3 -7 12 -29 21 -49 l15 -36 -34 -16
-35 -17 -25 48 c-15 26 -24 39 -21 29 3 -10 6 -36 6 -57 0 -28 5 -42 18 -49
10 -5 83 -14 162 -21 80 -6 195 -17 255 -25 319 -41 454 -51 483 -36 l22 12
-20 39 c-25 50 -25 100 0 149 36 71 58 81 179 81 58 -1 138 -7 178 -15 39 -8
107 -17 150 -20 43 -2 123 -7 177 -10 55 -3 104 -9 110 -12 5 -4 101 -8 213
-10 215 -3 236 -7 279 -55 35 -37 42 -69 43 -191 1 -94 -6 -90 181 -107 144
-13 185 -26 260 -79 25 -18 60 -41 78 -53 30 -19 32 -23 32 -77 0 -64 -7 -75
-75 -109 -46 -23 -76 -53 -99 -100 -10 -18 -41 -56 -70 -85 -29 -29 -66 -72
-81 -97 -16 -25 -45 -67 -65 -95 -21 -27 -61 -98 -90 -157 -48 -96 -62 -115
-138 -184 -79 -73 -193 -226 -247 -334 -10 -19 -29 -48 -42 -64 -32 -38 -105
-96 -114 -90 -4 2 -16 22 -28 44 -18 35 -21 58 -21 173 0 114 -3 136 -20 164
-23 39 -27 39 -55 13 -12 -11 -43 -24 -70 -29 -59 -11 -121 12 -153 56 -28 39
-100 63 -191 63 -40 0 -115 7 -165 15 -60 11 -138 15 -230 13 -153 -3 -150 -2
-161 -70 -3 -22 -23 -59 -47 -89 -45 -57 -43 -63 27 -74 45 -6 72 -29 99 -82
22 -44 20 -64 -9 -107 l-24 -36 24 -16 c20 -13 43 -15 117 -11 57 3 131 0 191
-9 55 -8 140 -13 190 -12 l92 3 0 71 c0 60 4 76 28 113 69 104 197 86 243 -35
14 -37 15 -55 7 -101 -11 -59 -11 -58 41 -101 25 -20 20 -83 -10 -128 -14 -21
-51 -64 -82 -95 -88 -86 -110 -112 -135 -160 -27 -49 -113 -171 -149 -209 -13
-14 -37 -47 -53 -75 -41 -71 -120 -170 -189 -236 -33 -32 -112 -52 -175 -45
-31 3 -92 8 -136 11 -44 3 -186 12 -315 20 -579 37 -579 37 -608 23 -22 -11
-26 -19 -24 -43 2 -17 7 -34 12 -40 9 -12 10 -41 4 -74 -4 -20 -7 -22 -15 -10
-7 11 -9 9 -9 -9 0 -12 -7 -25 -15 -28 -8 -4 -15 -12 -15 -20 0 -12 290 -14
1904 -14 l1904 0 6 26 c24 93 -15 653 -60 874 -8 40 11 10 26 -40 8 -25 13
-48 12 -52 -1 -4 5 -22 13 -41 8 -19 16 -45 19 -58 3 -13 8 -35 11 -49 23 -99
45 -349 47 -540 l1 -120 49 0 c37 0 47 3 41 13 -8 13 -10 27 -17 132 -3 39 -8
97 -11 130 -3 33 -8 105 -9 160 -5 146 -5 147 -16 140 -5 -3 -10 1 -10 10 0
10 5 14 13 10 6 -4 4 0 -5 8 -18 14 -26 53 -10 43 5 -3 9 2 9 10 0 8 -6 13
-14 10 -7 -3 -13 -1 -13 4 0 6 5 10 10 10 6 0 10 5 10 11 0 5 -4 8 -9 5 -10
-7 -21 17 -20 42 0 14 2 13 9 -3 6 -13 7 -5 3 25 -3 25 -12 50 -19 56 -8 6
-11 14 -7 17 3 4 2 7 -4 7 -6 0 -14 7 -17 16 -5 14 -4 15 9 4 13 -11 15 -9 15
12 0 13 -5 29 -11 35 -7 7 -12 20 -13 30 -2 26 -48 133 -58 133 -4 0 -8 7 -8
15 0 8 -5 14 -11 12 -6 -1 -14 4 -17 12 -3 8 0 11 7 7 16 -10 14 25 -3 49 -7
11 -17 31 -21 45 -8 29 -28 74 -61 144 -13 28 -24 55 -24 61 0 7 -9 20 -20 30
-11 10 -20 23 -20 29 0 18 -83 181 -97 189 -7 5 -11 12 -8 18 9 14 25 11 25
-4 0 -8 11 -27 25 -43 14 -16 25 -33 25 -37 0 -5 11 -23 24 -40 22 -30 34 -54
67 -134 8 -18 17 -33 21 -33 5 0 8 -14 8 -31 0 -16 4 -28 9 -25 9 6 68 -123
100 -222 12 -34 25 -70 30 -80 5 -9 19 -51 31 -92 11 -41 32 -111 45 -155 56
-183 86 -399 86 -627 l1 -158 2549 0 2549 0 0 1163 0 1164 -41 12 c-23 7 -63
16 -88 21 -62 11 -182 56 -247 91 -28 16 -62 29 -74 29 -22 0 -128 39 -190 69
-19 10 -53 21 -75 25 -56 11 -144 40 -196 66 -53 27 -190 167 -305 310 -15 19
-64 74 -108 121 -45 47 -96 105 -115 128 -42 53 -107 101 -137 101 -14 0 -41
18 -67 43 -54 54 -149 85 -219 72 -65 -12 -157 -8 -183 9 -12 8 -25 27 -28 43
-3 15 -15 59 -26 98 -12 38 -21 87 -21 107 0 24 -5 38 -13 38 -22 0 -41 71
-51 197 -2 34 -9 70 -15 81 -9 17 -7 19 14 16 17 -1 25 3 25 12 0 9 -5 12 -11
8 -7 -4 -9 2 -7 17 2 18 8 23 23 21 11 -2 23 -9 27 -15 4 -7 12 0 19 16 7 15
18 27 24 27 7 0 15 10 18 22 8 27 -1 38 -13 18 -8 -13 -10 -12 -10 3 0 9 7 17
16 17 8 0 12 5 9 10 -4 6 -15 8 -26 5 -10 -4 -19 -2 -19 4 0 7 -8 7 -22 2 -44
-15 -111 -1 -140 30 -28 30 -54 37 -60 17 -2 -6 -10 -8 -16 -4 -7 4 -10 16 -7
27 4 11 2 19 -4 19 -6 0 -11 -6 -11 -14 0 -8 -5 -18 -12 -22 -8 -5 -9 -2 -5
10 4 9 2 25 -5 35 -10 17 -14 17 -61 3 -49 -14 -50 -14 -68 9 -10 13 -19 29
-19 36 0 14 -87 78 -120 88 -14 4 -33 14 -42 23 -10 8 -18 13 -19 11z m596
-348 c3 -5 1 -12 -5 -16 -5 -3 -10 1 -10 9 0 18 6 21 15 7z m-1378 -678 c-3
-10 -5 -2 -5 17 0 19 2 27 5 18 2 -10 2 -26 0 -35z m-44 -16 c-7 -12 -23 3
-23 22 0 28 14 35 21 9 3 -13 4 -26 2 -31z m-272 -100 c-8 -8 -11 -7 -11 4 0
20 13 34 18 19 3 -7 -1 -17 -7 -23z m-454 -259 c-3 -8 -6 -5 -6 6 -1 11 2 17
5 13 3 -3 4 -12 1 -19z m283 2 c0 -5 -5 -10 -11 -10 -5 0 -7 5 -4 10 3 6 8 10
11 10 2 0 4 -4 4 -10z m-335 -30 c3 -5 2 -10 -4 -10 -5 0 -13 5 -16 10 -3 6
-2 10 4 10 5 0 13 -4 16 -10z m-288 -42 c-3 -8 -6 -5 -6 6 -1 11 2 17 5 13 3
-3 4 -12 1 -19z m463 -38 c0 -11 -4 -20 -9 -20 -5 0 -7 9 -4 20 3 11 7 20 9
20 2 0 4 -9 4 -20z m2844 -16 c9 -8 16 -21 16 -27 0 -7 -4 -6 -10 3 -5 8 -10
11 -10 6 0 -11 -30 14 -30 25 0 14 17 11 34 -7z m-2954 -10 c0 -8 -4 -12 -10
-9 -5 3 -10 10 -10 16 0 5 5 9 10 9 6 0 10 -7 10 -16z m-43 -46 c-3 -8 -6 -5
-6 6 -1 11 2 17 5 13 3 -3 4 -12 1 -19z m62 -11 c0 -21 -1 -21 -9 -2 -12 28
-12 37 0 30 6 -3 10 -16 9 -28z m-171 -62 c-3 -3 -9 2 -12 12 -6 14 -5 15 5 6
7 -7 10 -15 7 -18z m-1108 -289 c0 -14 -4 -28 -10 -31 -5 -3 -10 -1 -10 5 0 6
-5 8 -10 5 -6 -4 -5 5 2 19 14 33 28 33 28 2z m210 -18 c0 -47 -6 -48 -13 -1
-4 28 -1 43 10 43 2 0 3 -19 3 -42z m72 -22 c-3 -5 -9 -1 -12 10 -4 10 -5 23
-2 28 3 5 9 1 12 -10 4 -10 5 -23 2 -28z m-246 -32 c-8 -21 -15 -31 -15 -22
-1 18 20 70 26 65 2 -2 -3 -21 -11 -43z m332 -104 c-3 -3 -10 -17 -13 -33 -9
-34 -28 -24 -21 11 3 15 8 49 11 76 9 74 19 78 25 11 3 -33 2 -62 -2 -65z m92
85 c7 -9 10 -25 5 -42 -7 -31 -17 -21 -29 30 -7 30 4 36 24 12z m-310 -37 c-3
-38 2 -94 7 -75 2 9 9 17 14 17 6 0 7 4 4 10 -3 5 1 20 9 32 14 19 16 20 16 5
0 -10 4 -16 9 -13 14 9 39 -18 42 -44 4 -36 -10 -72 -26 -66 -7 2 -16 -2 -19
-10 -4 -10 -17 -14 -40 -12 -21 1 -32 6 -29 14 2 6 -3 14 -12 18 -9 3 -13 2
-10 -4 3 -6 1 -10 -4 -10 -6 0 -11 -6 -11 -13 0 -16 -60 -39 -109 -42 -20 -2
-44 -6 -55 -10 -20 -9 -39 11 -28 30 3 5 -1 4 -10 -3 -13 -10 -17 -9 -23 10
-13 41 -13 48 -5 53 11 7 1 37 -14 48 -14 9 14 29 32 22 6 -2 12 0 12 6 0 13
62 1 71 -13 9 -14 50 14 44 29 -11 30 16 10 29 -21 9 -22 20 -34 31 -32 27 4
55 34 62 66 7 35 15 40 13 8z m118 0 c-5 -32 -28 -36 -26 -4 1 14 8 26 16 26
8 0 12 -9 10 -22z m52 -10 c0 -23 -3 -29 -11 -21 -6 6 -8 20 -4 32 9 30 15 26
15 -11z m-10 -48 c0 -5 -4 -10 -10 -10 -5 0 -10 5 -10 10 0 6 5 10 10 10 6 0
10 -4 10 -10z m-470 -20 c0 -5 -7 -10 -16 -10 -8 0 -12 5 -9 10 3 6 10 10 16
10 5 0 9 -4 9 -10z m-246 -237 c-4 -21 -7 -39 -8 -40 0 -1 -12 7 -25 18 -13
10 -18 19 -12 19 6 0 11 9 11 20 0 13 7 20 20 20 19 0 20 -4 14 -37z m-61 -4
c-8 -29 -22 -33 -44 -13 -29 26 -24 41 15 36 27 -3 33 -7 29 -23z m137 7 c0
-8 5 -18 12 -22 6 -4 8 -3 5 3 -4 6 0 16 8 23 14 11 15 1 10 -96 -4 -59 -9
-112 -11 -116 -3 -4 -1 -52 5 -105 19 -184 21 -349 5 -369 -14 -18 -15 -18
-31 4 -15 21 -16 21 -29 5 -9 -12 -13 -14 -14 -5 0 8 -5 10 -12 6 -8 -5 -9 -2
-5 9 3 9 2 16 -3 14 -13 -3 -18 447 -5 451 6 2 14 -29 19 -68 6 -43 14 -69 20
-67 12 4 12 76 1 120 -6 21 -4 27 9 27 9 0 21 11 27 24 9 20 8 27 -10 45 -24
24 -28 61 -6 61 8 0 15 3 15 6 0 3 -7 12 -15 20 -17 17 -20 44 -5 44 6 0 10
-6 10 -14z m-88 -100 c7 -36 -10 -49 -34 -26 -27 25 -18 76 11 61 10 -6 21
-22 23 -35z m304 -202 c1 -9 0 -13 -4 -10 -3 4 -7 14 -8 22 -1 9 0 13 4 10 3
-4 7 -14 8 -22z m171 -376 c-3 -8 -6 -5 -6 6 -1 11 2 17 5 13 3 -3 4 -12 1
-19z m-2385 -52 c10 -15 10 -66 0 -66 -30 0 -65 53 -47 72 9 9 40 5 47 -6z
m2438 -20 c0 -3 -4 -8 -10 -11 -5 -3 -10 -1 -10 4 0 6 5 11 10 11 6 0 10 -2
10 -4z m57 -142 c-3 -3 -12 -4 -19 -1 -8 3 -5 6 6 6 11 1 17 -2 13 -5z m-1299
-135 c-2 -6 -8 -10 -13 -10 -5 0 -11 4 -13 10 -2 6 4 11 13 11 9 0 15 -5 13
-11z"/>
<path d="M5580 2286 c0 -9 5 -16 10 -16 6 0 10 4 10 9 0 6 -4 13 -10 16 -5 3
-10 -1 -10 -9z"/>
<path d="M5850 2254 c0 -8 5 -12 10 -9 6 4 8 11 5 16 -9 14 -15 11 -15 -7z"/>
<path d="M6572 4413 c-1 -25 18 -73 29 -73 14 0 10 53 -5 73 -7 9 -15 17 -18
17 -3 0 -5 -8 -6 -17z"/>
<path d="M4856 4403 c-6 -14 -5 -15 5 -6 7 7 10 15 7 18 -3 3 -9 -2 -12 -12z"/>
<path d="M8874 4410 c-11 -4 -29 -21 -39 -36 -18 -27 -17 -28 6 -47 13 -10 24
-26 24 -36 0 -9 10 -17 22 -19 18 -3 21 0 16 13 -3 10 -2 20 4 24 5 3 20 21
33 40 l23 34 -22 18 c-25 21 -35 22 -67 9z"/>
<path d="M6402 4399 c2 -7 10 -15 17 -17 8 -3 12 1 9 9 -2 7 -10 15 -17 17 -8
3 -12 -1 -9 -9z"/>
<path d="M6447 4404 c-4 -4 -7 -33 -7 -65 0 -49 -3 -59 -20 -64 -35 -11 -11
-66 31 -72 20 -3 21 0 17 41 -4 35 -2 43 10 42 8 -2 20 -16 27 -32 l13 -29 1
27 c1 15 -4 39 -9 54 -13 33 -5 44 15 18 11 -15 14 -16 15 -4 0 9 -13 27 -30
42 -16 14 -30 21 -30 15 -1 -7 -6 -2 -13 11 -7 12 -16 19 -20 16z m3 -150 c0
-8 -5 -12 -10 -9 -6 4 -8 11 -5 16 9 14 15 11 15 -7z"/>
<path d="M6140 4373 c0 -5 7 -18 15 -29 15 -18 15 -18 13 5 -3 23 -28 44 -28
24z"/>
<path d="M6270 4310 c0 -23 -34 -44 -62 -37 -11 3 -17 3 -14 0 3 -4 1 -12 -5
-20 -8 -9 -8 -13 -1 -13 6 0 14 5 17 10 3 6 22 10 41 10 19 0 34 5 34 11 0 7
11 1 23 -13 21 -23 25 -24 35 -9 10 14 12 14 21 1 6 -8 11 -10 11 -4 0 5 -6
16 -12 23 -7 8 -8 11 -3 8 21 -11 33 7 22 33 -9 23 -10 24 -16 5 -8 -27 -33
-29 -59 -5 -27 25 -32 25 -32 0z"/>
<path d="M6160 4270 c0 -5 5 -10 11 -10 5 0 7 5 4 10 -3 6 -8 10 -11 10 -2 0
-4 -4 -4 -10z"/>
<path d="M6113 4245 c-3 -9 -3 -18 -1 -21 3 -3 8 4 11 16 6 23 -1 27 -10 5z"/>
<path d="M8107 4229 c4 -13 8 -18 11 -10 2 7 -1 18 -6 23 -8 8 -9 4 -5 -13z"/>
<path d="M6040 4219 c0 -5 5 -7 10 -4 6 3 10 8 10 11 0 2 -4 4 -10 4 -5 0 -10
-5 -10 -11z"/>
<path d="M8170 4220 c0 -25 16 -44 25 -30 4 7 0 19 -9 28 -13 14 -16 14 -16 2z"/>
<path d="M4759 4132 c-23 -4 -32 -59 -15 -83 11 -17 14 -18 19 -5 4 9 13 13
21 10 9 -3 19 4 27 18 6 13 17 26 23 30 7 5 6 8 -4 9 -8 1 -21 2 -28 3 -7 0
-16 6 -20 11 -4 6 -14 9 -23 7z"/>
<path d="M9170 4130 c0 -5 5 -10 10 -10 6 0 10 5 10 10 0 6 -4 10 -10 10 -5 0
-10 -4 -10 -10z"/>
<path d="M4957 4117 c2 -4 -9 -6 -25 -5 -17 1 -37 -3 -45 -10 -8 -7 -19 -12
-23 -11 -26 4 -36 -1 -25 -14 6 -8 8 -17 4 -20 -3 -4 0 -7 8 -8 8 0 24 -2 37
-3 13 -2 25 1 28 6 3 5 21 6 40 2 27 -5 34 -3 34 9 0 9 9 19 20 22 21 7 28 25
9 25 -5 0 -7 5 -4 10 4 6 -7 9 -28 8 -19 -2 -33 -6 -30 -11z"/>
<path d="M8150 4115 c0 -5 5 -17 10 -25 5 -8 10 -10 10 -5 0 6 -5 17 -10 25
-5 8 -10 11 -10 5z"/>
<path d="M9145 4070 c-3 -5 -1 -10 4 -10 6 0 11 5 11 10 0 6 -2 10 -4 10 -3 0
-8 -4 -11 -10z"/>
<path d="M797 4059 c7 -7 15 -10 18 -7 3 3 -2 9 -12 12 -14 6 -15 5 -6 -5z"/>
<path d="M8060 4043 c0 -10 5 -25 10 -33 8 -12 10 -9 10 12 0 15 -4 30 -10 33
-5 3 -10 -2 -10 -12z"/>
<path d="M8151 4034 c0 -11 3 -14 6 -6 3 7 2 16 -1 19 -3 4 -6 -2 -5 -13z"/>
<path d="M8080 3936 c0 -9 5 -16 10 -16 6 0 10 4 10 9 0 6 -4 13 -10 16 -5 3
-10 -1 -10 -9z"/>
<path d="M8120 3887 c0 -8 7 -14 15 -14 11 0 12 4 4 14 -6 7 -13 13 -15 13 -2
0 -4 -6 -4 -13z"/>
<path d="M10785 3732 c-25 -5 -44 -31 -43 -57 0 -11 -4 -40 -10 -65 -18 -71
-15 -124 7 -144 17 -15 30 -17 83 -11 74 9 92 17 115 51 16 25 16 26 -12 48
-28 22 -36 54 -35 134 0 19 -4 22 -23 18 -12 -3 -16 -3 -9 0 6 3 12 10 12 15
0 6 -4 7 -10 4 -5 -3 -10 -2 -10 3 0 10 -30 12 -65 4z"/>
<path d="M9980 3672 c0 -4 6 -14 13 -22 10 -12 9 -12 -5 -1 -19 14 -93 7 -104
-10 -3 -5 -15 -9 -28 -9 -39 0 -64 -38 -66 -100 -2 -30 -2 -61 -1 -67 2 -22
39 -14 59 12 11 14 29 25 41 25 12 0 21 5 21 11 0 5 5 7 11 4 12 -8 49 23 49
41 0 7 9 16 20 19 11 3 20 15 20 25 0 10 6 21 13 23 9 4 9 8 -2 15 -7 5 -11
14 -7 20 3 5 -1 13 -10 16 -21 8 -24 8 -24 -2z"/>
<path d="M9993 3345 c-73 -31 -14 -70 107 -70 114 0 197 44 141 75 -29 15
-210 12 -248 -5z"/>
<path d="M2320 3156 l0 -109 24 22 24 23 21 -47 c12 -26 21 -51 21 -56 0 -11
11 -11 29 0 11 7 9 17 -8 56 -12 26 -21 49 -21 51 0 2 14 4 30 4 17 0 30 3 30
8 0 4 -34 41 -75 82 l-75 74 0 -108z"/>
<path d="M5465 2667 c-4 -10 -5 -21 -1 -24 10 -10 18 4 13 24 -4 17 -4 17 -12
0z"/>
<path d="M2725 1460 c-4 -6 11 -10 37 -10 31 0 39 3 28 10 -20 13 -57 13 -65
0z"/>
<path d="M1149 298 c-12 -10 -14 -28 -11 -87 3 -48 1 -72 -6 -67 -14 9 -22
-18 -22 -75 0 -42 3 -51 22 -58 12 -4 38 -4 58 0 19 5 79 6 132 2 87 -5 98 -4
104 12 6 15 16 17 73 11 36 -4 69 -12 74 -19 7 -9 10 -9 14 0 3 10 11 9 34 -2
33 -18 106 -13 173 10 23 8 73 15 113 15 89 0 126 14 116 44 -7 22 -8 34 -5
79 1 19 9 30 26 37 33 12 42 30 16 30 -11 0 -32 7 -45 16 -18 12 -67 18 -187
25 -90 5 -242 14 -338 20 -305 20 -324 20 -341 7z"/>
</g>
</svg>
